{"asset":{"version":"2.0","generator":"Blockbench 5.1.1 glTF exporter by VoxelAdder"},"scenes":[{"nodes":[0,1,2],"name":"blockbench_export"}],"scene":0,"nodes":[{"name":"base","mesh":0},{"name":"leggings","mesh":1},{"name":"Helmet","mesh":2}],"bufferViews":[{"buffer":0,"byteOffset":0,"byteLength":2880,"target":34962,"byteStride":12},{"buffer":0,"byteOffset":2880,"byteLength":2880,"target":34962,"byteStride":12},{"buffer":0,"byteOffset":5760,"byteLength":1920,"target":34962,"byteStride":8},{"buffer":0,"byteOffset":7680,"byteLength":720,"target":34963},{"buffer":0,"byteOffset":8400,"byteLength":864,"target":34962,"byteStride":12},{"buffer":0,"byteOffset":9264,"byteLength":864,"target":34962,"byteStride":12},{"buffer":0,"byteOffset":10128,"byteLength":576,"target":34962,"byteStride":8},{"buffer":0,"byteOffset":10704,"byteLength":216,"target":34963},{"buffer":0,"byteOffset":10920,"byteLength":2016,"target":34962,"byteStride":12},{"buffer":0,"byteOffset":12936,"byteLength":2016,"target":34962,"byteStride":12},{"buffer":0,"byteOffset":14952,"byteLength":1344,"target":34962,"byteStride":8},{"buffer":0,"byteOffset":16296,"byteLength":504,"target":34963}],"buffers":[{"byteLength":16800,"uri":"data:application/octet-stream;base64,"}],"accessors":[{"bufferView":0,"componentType":5126,"count":240,"max":[0.4375,1.9375,0.375],"min":[-0.4375,0,-0.375],"type":"VEC3"},{"bufferView":1,"componentType":5126,"count":240,"max":[1,1,1],"min":[-1,-1,-1],"type":"VEC3"},{"bufferView":2,"componentType":5126,"count":240,"max":[0.875,0.8125],"min":[0,0],"type":"VEC2"},{"bufferView":3,"componentType":5123,"count":360,"max":[239],"min":[0],"type":"SCALAR"},{"bufferView":4,"componentType":5126,"count":72,"max":[0.28187501430511475,1.5318750143051147,0.15687499940395355],"min":[-0.28187501430511475,-0.03125,-0.15687499940395355],"type":"VEC3"},{"bufferView":5,"componentType":5126,"count":72,"max":[1,1,1],"min":[-1,-1,-1],"type":"VEC3"},{"bufferView":6,"componentType":5126,"count":72,"max":[0.625,1],"min":[0,0.5],"type":"VEC2"},{"bufferView":7,"componentType":5123,"count":108,"max":[71],"min":[0],"type":"SCALAR"},{"bufferView":8,"componentType":5126,"count":168,"max":[0.5625,2.09375,0.34375],"min":[-0.5625,-0.0625,-0.34375],"type":"VEC3"},{"bufferView":9,"componentType":5126,"count":168,"max":[1,1,1],"min":[-1,-1,-1],"type":"VEC3"},{"bufferView":10,"componentType":5126,"count":168,"max":[1,1],"min":[0,0],"type":"VEC2"},{"bufferView":11,"componentType":5123,"count":252,"max":[167],"min":[0],"type":"SCALAR"}],"materials":[{"pbrMetallicRoughness":{"metallicFactor":0,"roughnessFactor":1,"baseColorTexture":{"index":0}},"alphaMode":"MASK","alphaCutoff":0.05,"doubleSided":true},{"pbrMetallicRoughness":{"metallicFactor":0,"roughnessFactor":1,"baseColorTexture":{"index":1}},"alphaMode":"MASK","alphaCutoff":0.05,"doubleSided":true},{"pbrMetallicRoughness":{"metallicFactor":0,"roughnessFactor":1,"baseColorTexture":{"index":2}},"alphaMode":"MASK","alphaCutoff":0.05,"doubleSided":true}],"textures":[{"sampler":0,"source":0,"name":"wood.png"},{"sampler":1,"source":1,"name":"iron_layer_2.png"},{"sampler":2,"source":2,"name":"iron_layer_1.png"}],"samplers":[{"magFilter":9728,"minFilter":9728,"wrapS":33071,"wrapT":33071},{"magFilter":9728,"minFilter":9728,"wrapS":33071,"wrapT":33071},{"magFilter":9728,"minFilter":9728,"wrapS":33071,"wrapT":33071}],"images":[{"mimeType":"image/png","uri":"data:image/png;base64,"},{"mimeType":"image/png","uri":"data:image/png;base64,"},{"mimeType":"image/png","uri":"data:image/png;base64,"}],"meshes":[{"primitives":[{"mode":4,"attributes":{"POSITION":0,"NORMAL":1,"TEXCOORD_0":2},"indices":3,"material":0}]},{"primitives":[{"mode":4,"attributes":{"POSITION":4,"NORMAL":5,"TEXCOORD_0":6},"indices":7,"material":1}]},{"primitives":[{"mode":4,"attributes":{"POSITION":8,"NORMAL":9,"TEXCOORD_0":10},"indices":11,"material":2}]}]}
